<svg version="1.0" xmlns="http://www.w3.org/2000/svg" xmlns:xlink="http://www.w3.org/1999/xlink"
	 viewBox="0 0 100 100" enable-background="new 0 0 100 100" xml:space="preserve">
	
<svg xmlns="http://www.w3.org/2000/svg" xmlns:xlink="http://www.w3.org/1999/xlink" version="1.1" width="100" height="100" viewBox="0 0 2000 2000" x="0" y="0" shape-rendering="crispEdges"><defs/><rect x="0" y="0" width="2000" height="2000" fill="#ffffff"/><rect x="840" y="200" width="64" height="64" fill="#0078d7"/><rect x="1160" y="200" width="64" height="64" fill="#0078d7"/><rect x="712" y="264" width="64" height="64" fill="#0078d7"/><rect x="776" y="264" width="64" height="64" fill="#0078d7"/><rect x="840" y="264" width="64" height="64" fill="#0078d7"/><rect x="1032" y="264" width="64" height="64" fill="#0078d7"/><rect x="1096" y="264" width="64" height="64" fill="#0078d7"/><rect x="1224" y="264" width="64" height="64" fill="#0078d7"/><rect x="712" y="328" width="64" height="64" fill="#0078d7"/><rect x="1160" y="328" width="64" height="64" fill="#0078d7"/><rect x="1224" y="328" width="64" height="64" fill="#0078d7"/><rect x="776" y="392" width="64" height="64" fill="#0078d7"/><rect x="968" y="392" width="64" height="64" fill="#0078d7"/><rect x="1160" y="392" width="64" height="64" fill="#0078d7"/><rect x="1224" y="392" width="64" height="64" fill="#0078d7"/><rect x="712" y="456" width="64" height="64" fill="#0078d7"/><rect x="776" y="456" width="64" height="64" fill="#0078d7"/><rect x="840" y="456" width="64" height="64" fill="#0078d7"/><rect x="968" y="456" width="64" height="64" fill="#0078d7"/><rect x="1032" y="456" width="64" height="64" fill="#0078d7"/><rect x="1096" y="456" width="64" height="64" fill="#0078d7"/><rect x="1224" y="456" width="64" height="64" fill="#0078d7"/><rect x="712" y="520" width="64" height="64" fill="#0078d7"/><rect x="840" y="520" width="64" height="64" fill="#0078d7"/><rect x="968" y="520" width="64" height="64" fill="#0078d7"/><rect x="1160" y="520" width="64" height="64" fill="#0078d7"/><rect x="712" y="584" width="64" height="64" fill="#0078d7"/><rect x="840" y="584" width="64" height="64" fill="#0078d7"/><rect x="968" y="584" width="64" height="64" fill="#0078d7"/><rect x="1096" y="584" width="64" height="64" fill="#0078d7"/><rect x="1224" y="584" width="64" height="64" fill="#0078d7"/><rect x="712" y="648" width="64" height="64" fill="#0078d7"/><rect x="840" y="648" width="64" height="64" fill="#0078d7"/><rect x="904" y="648" width="64" height="64" fill="#0078d7"/><rect x="200" y="712" width="64" height="64" fill="#0078d7"/><rect x="264" y="712" width="64" height="64" fill="#0078d7"/><rect x="392" y="712" width="64" height="64" fill="#0078d7"/><rect x="584" y="712" width="64" height="64" fill="#0078d7"/><rect x="648" y="712" width="64" height="64" fill="#0078d7"/><rect x="904" y="712" width="64" height="64" fill="#0078d7"/><rect x="968" y="712" width="64" height="64" fill="#0078d7"/><rect x="1096" y="712" width="64" height="64" fill="#0078d7"/><rect x="1224" y="712" width="64" height="64" fill="#0078d7"/><rect x="1352" y="712" width="64" height="64" fill="#0078d7"/><rect x="1416" y="712" width="64" height="64" fill="#0078d7"/><rect x="1480" y="712" width="64" height="64" fill="#0078d7"/><rect x="1608" y="712" width="64" height="64" fill="#0078d7"/><rect x="1672" y="712" width="64" height="64" fill="#0078d7"/><rect x="200" y="776" width="64" height="64" fill="#0078d7"/><rect x="328" y="776" width="64" height="64" fill="#0078d7"/><rect x="392" y="776" width="64" height="64" fill="#0078d7"/><rect x="520" y="776" width="64" height="64" fill="#0078d7"/><rect x="712" y="776" width="64" height="64" fill="#0078d7"/><rect x="776" y="776" width="64" height="64" fill="#0078d7"/><rect x="904" y="776" width="64" height="64" fill="#0078d7"/><rect x="968" y="776" width="64" height="64" fill="#0078d7"/><rect x="1032" y="776" width="64" height="64" fill="#0078d7"/><rect x="1160" y="776" width="64" height="64" fill="#0078d7"/><rect x="1224" y="776" width="64" height="64" fill="#0078d7"/><rect x="1352" y="776" width="64" height="64" fill="#0078d7"/><rect x="1480" y="776" width="64" height="64" fill="#0078d7"/><rect x="1672" y="776" width="64" height="64" fill="#0078d7"/><rect x="264" y="840" width="64" height="64" fill="#0078d7"/><rect x="328" y="840" width="64" height="64" fill="#0078d7"/><rect x="584" y="840" width="64" height="64" fill="#0078d7"/><rect x="904" y="840" width="64" height="64" fill="#0078d7"/><rect x="968" y="840" width="64" height="64" fill="#0078d7"/><rect x="1032" y="840" width="64" height="64" fill="#0078d7"/><rect x="1288" y="840" width="64" height="64" fill="#0078d7"/><rect x="1352" y="840" width="64" height="64" fill="#0078d7"/><rect x="1416" y="840" width="64" height="64" fill="#0078d7"/><rect x="1544" y="840" width="64" height="64" fill="#0078d7"/><rect x="1608" y="840" width="64" height="64" fill="#0078d7"/><rect x="200" y="904" width="64" height="64" fill="#0078d7"/><rect x="328" y="904" width="64" height="64" fill="#0078d7"/><rect x="392" y="904" width="64" height="64" fill="#0078d7"/><rect x="648" y="904" width="64" height="64" fill="#0078d7"/><rect x="776" y="904" width="64" height="64" fill="#0078d7"/><rect x="840" y="904" width="64" height="64" fill="#0078d7"/><rect x="904" y="904" width="64" height="64" fill="#0078d7"/><rect x="968" y="904" width="64" height="64" fill="#0078d7"/><rect x="1096" y="904" width="64" height="64" fill="#0078d7"/><rect x="1224" y="904" width="64" height="64" fill="#0078d7"/><rect x="1288" y="904" width="64" height="64" fill="#0078d7"/><rect x="1352" y="904" width="64" height="64" fill="#0078d7"/><rect x="1416" y="904" width="64" height="64" fill="#0078d7"/><rect x="1480" y="904" width="64" height="64" fill="#0078d7"/><rect x="1736" y="904" width="64" height="64" fill="#0078d7"/><rect x="200" y="968" width="64" height="64" fill="#0078d7"/><rect x="328" y="968" width="64" height="64" fill="#0078d7"/><rect x="392" y="968" width="64" height="64" fill="#0078d7"/><rect x="456" y="968" width="64" height="64" fill="#0078d7"/><rect x="520" y="968" width="64" height="64" fill="#0078d7"/><rect x="584" y="968" width="64" height="64" fill="#0078d7"/><rect x="648" y="968" width="64" height="64" fill="#0078d7"/><rect x="840" y="968" width="64" height="64" fill="#0078d7"/><rect x="904" y="968" width="64" height="64" fill="#0078d7"/><rect x="1032" y="968" width="64" height="64" fill="#0078d7"/><rect x="1096" y="968" width="64" height="64" fill="#0078d7"/><rect x="1224" y="968" width="64" height="64" fill="#0078d7"/><rect x="1352" y="968" width="64" height="64" fill="#0078d7"/><rect x="1416" y="968" width="64" height="64" fill="#0078d7"/><rect x="1608" y="968" width="64" height="64" fill="#0078d7"/><rect x="1672" y="968" width="64" height="64" fill="#0078d7"/><rect x="1736" y="968" width="64" height="64" fill="#0078d7"/><rect x="392" y="1032" width="64" height="64" fill="#0078d7"/><rect x="456" y="1032" width="64" height="64" fill="#0078d7"/><rect x="520" y="1032" width="64" height="64" fill="#0078d7"/><rect x="648" y="1032" width="64" height="64" fill="#0078d7"/><rect x="904" y="1032" width="64" height="64" fill="#0078d7"/><rect x="1416" y="1032" width="64" height="64" fill="#0078d7"/><rect x="1480" y="1032" width="64" height="64" fill="#0078d7"/><rect x="1608" y="1032" width="64" height="64" fill="#0078d7"/><rect x="1672" y="1032" width="64" height="64" fill="#0078d7"/><rect x="1736" y="1032" width="64" height="64" fill="#0078d7"/><rect x="200" y="1096" width="64" height="64" fill="#0078d7"/><rect x="328" y="1096" width="64" height="64" fill="#0078d7"/><rect x="392" y="1096" width="64" height="64" fill="#0078d7"/><rect x="456" y="1096" width="64" height="64" fill="#0078d7"/><rect x="584" y="1096" width="64" height="64" fill="#0078d7"/><rect x="648" y="1096" width="64" height="64" fill="#0078d7"/><rect x="904" y="1096" width="64" height="64" fill="#0078d7"/><rect x="1096" y="1096" width="64" height="64" fill="#0078d7"/><rect x="1160" y="1096" width="64" height="64" fill="#0078d7"/><rect x="1224" y="1096" width="64" height="64" fill="#0078d7"/><rect x="1352" y="1096" width="64" height="64" fill="#0078d7"/><rect x="1480" y="1096" width="64" height="64" fill="#0078d7"/><rect x="1544" y="1096" width="64" height="64" fill="#0078d7"/><rect x="1736" y="1096" width="64" height="64" fill="#0078d7"/><rect x="264" y="1160" width="64" height="64" fill="#0078d7"/><rect x="392" y="1160" width="64" height="64" fill="#0078d7"/><rect x="712" y="1160" width="64" height="64" fill="#0078d7"/><rect x="776" y="1160" width="64" height="64" fill="#0078d7"/><rect x="840" y="1160" width="64" height="64" fill="#0078d7"/><rect x="904" y="1160" width="64" height="64" fill="#0078d7"/><rect x="1032" y="1160" width="64" height="64" fill="#0078d7"/><rect x="1096" y="1160" width="64" height="64" fill="#0078d7"/><rect x="1352" y="1160" width="64" height="64" fill="#0078d7"/><rect x="1416" y="1160" width="64" height="64" fill="#0078d7"/><rect x="200" y="1224" width="64" height="64" fill="#0078d7"/><rect x="264" y="1224" width="64" height="64" fill="#0078d7"/><rect x="520" y="1224" width="64" height="64" fill="#0078d7"/><rect x="584" y="1224" width="64" height="64" fill="#0078d7"/><rect x="648" y="1224" width="64" height="64" fill="#0078d7"/><rect x="712" y="1224" width="64" height="64" fill="#0078d7"/><rect x="776" y="1224" width="64" height="64" fill="#0078d7"/><rect x="968" y="1224" width="64" height="64" fill="#0078d7"/><rect x="1032" y="1224" width="64" height="64" fill="#0078d7"/><rect x="1224" y="1224" width="64" height="64" fill="#0078d7"/><rect x="1288" y="1224" width="64" height="64" fill="#0078d7"/><rect x="1352" y="1224" width="64" height="64" fill="#0078d7"/><rect x="1416" y="1224" width="64" height="64" fill="#0078d7"/><rect x="1480" y="1224" width="64" height="64" fill="#0078d7"/><rect x="1736" y="1224" width="64" height="64" fill="#0078d7"/><rect x="712" y="1288" width="64" height="64" fill="#0078d7"/><rect x="776" y="1288" width="64" height="64" fill="#0078d7"/><rect x="840" y="1288" width="64" height="64" fill="#0078d7"/><rect x="968" y="1288" width="64" height="64" fill="#0078d7"/><rect x="1032" y="1288" width="64" height="64" fill="#0078d7"/><rect x="1096" y="1288" width="64" height="64" fill="#0078d7"/><rect x="1224" y="1288" width="64" height="64" fill="#0078d7"/><rect x="1480" y="1288" width="64" height="64" fill="#0078d7"/><rect x="712" y="1352" width="64" height="64" fill="#0078d7"/><rect x="840" y="1352" width="64" height="64" fill="#0078d7"/><rect x="904" y="1352" width="64" height="64" fill="#0078d7"/><rect x="968" y="1352" width="64" height="64" fill="#0078d7"/><rect x="1032" y="1352" width="64" height="64" fill="#0078d7"/><rect x="1160" y="1352" width="64" height="64" fill="#0078d7"/><rect x="1224" y="1352" width="64" height="64" fill="#0078d7"/><rect x="1352" y="1352" width="64" height="64" fill="#0078d7"/><rect x="1480" y="1352" width="64" height="64" fill="#0078d7"/><rect x="1544" y="1352" width="64" height="64" fill="#0078d7"/><rect x="1672" y="1352" width="64" height="64" fill="#0078d7"/><rect x="1736" y="1352" width="64" height="64" fill="#0078d7"/><rect x="968" y="1416" width="64" height="64" fill="#0078d7"/><rect x="1032" y="1416" width="64" height="64" fill="#0078d7"/><rect x="1224" y="1416" width="64" height="64" fill="#0078d7"/><rect x="1480" y="1416" width="64" height="64" fill="#0078d7"/><rect x="1544" y="1416" width="64" height="64" fill="#0078d7"/><rect x="1608" y="1416" width="64" height="64" fill="#0078d7"/><rect x="1672" y="1416" width="64" height="64" fill="#0078d7"/><rect x="1736" y="1416" width="64" height="64" fill="#0078d7"/><rect x="840" y="1480" width="64" height="64" fill="#0078d7"/><rect x="968" y="1480" width="64" height="64" fill="#0078d7"/><rect x="1032" y="1480" width="64" height="64" fill="#0078d7"/><rect x="1160" y="1480" width="64" height="64" fill="#0078d7"/><rect x="1224" y="1480" width="64" height="64" fill="#0078d7"/><rect x="1288" y="1480" width="64" height="64" fill="#0078d7"/><rect x="1352" y="1480" width="64" height="64" fill="#0078d7"/><rect x="1416" y="1480" width="64" height="64" fill="#0078d7"/><rect x="1480" y="1480" width="64" height="64" fill="#0078d7"/><rect x="1608" y="1480" width="64" height="64" fill="#0078d7"/><rect x="1672" y="1480" width="64" height="64" fill="#0078d7"/><rect x="712" y="1544" width="64" height="64" fill="#0078d7"/><rect x="840" y="1544" width="64" height="64" fill="#0078d7"/><rect x="904" y="1544" width="64" height="64" fill="#0078d7"/><rect x="1032" y="1544" width="64" height="64" fill="#0078d7"/><rect x="1096" y="1544" width="64" height="64" fill="#0078d7"/><rect x="1160" y="1544" width="64" height="64" fill="#0078d7"/><rect x="1224" y="1544" width="64" height="64" fill="#0078d7"/><rect x="1288" y="1544" width="64" height="64" fill="#0078d7"/><rect x="1416" y="1544" width="64" height="64" fill="#0078d7"/><rect x="1480" y="1544" width="64" height="64" fill="#0078d7"/><rect x="776" y="1608" width="64" height="64" fill="#0078d7"/><rect x="968" y="1608" width="64" height="64" fill="#0078d7"/><rect x="1032" y="1608" width="64" height="64" fill="#0078d7"/><rect x="1160" y="1608" width="64" height="64" fill="#0078d7"/><rect x="1416" y="1608" width="64" height="64" fill="#0078d7"/><rect x="1544" y="1608" width="64" height="64" fill="#0078d7"/><rect x="1608" y="1608" width="64" height="64" fill="#0078d7"/><rect x="1736" y="1608" width="64" height="64" fill="#0078d7"/><rect x="712" y="1672" width="64" height="64" fill="#0078d7"/><rect x="1096" y="1672" width="64" height="64" fill="#0078d7"/><rect x="1224" y="1672" width="64" height="64" fill="#0078d7"/><rect x="1288" y="1672" width="64" height="64" fill="#0078d7"/><rect x="1544" y="1672" width="64" height="64" fill="#0078d7"/><rect x="1672" y="1672" width="64" height="64" fill="#0078d7"/><rect x="1736" y="1672" width="64" height="64" fill="#0078d7"/><rect x="712" y="1736" width="64" height="64" fill="#0078d7"/><rect x="776" y="1736" width="64" height="64" fill="#0078d7"/><rect x="1224" y="1736" width="64" height="64" fill="#0078d7"/><rect x="1480" y="1736" width="64" height="64" fill="#0078d7"/><rect x="1544" y="1736" width="64" height="64" fill="#0078d7"/><rect x="1672" y="1736" width="64" height="64" fill="#0078d7"/><rect x="1736" y="1736" width="64" height="64" fill="#0078d7"/><svg version="1.1" id="Ebene_1" x="200" y="200" viewBox="0 0 700 700" style="enable-background:new 0 0 700 700;" xml:space="preserve" width="448" height="448" shape-rendering="auto">

<path fill="#0078d7" d="M21.2-0.1C9.5-0.1-0.1,9.5-0.1,21.2v78.8v100v100v100v100v100v78.8c0,11.7,9.5,21.3,21.3,21.3h657.6  c11.7,0,21.3-9.5,21.3-21.3V600V500V400V300V200v-100V21.2c0-11.7-9.5-21.3-21.3-21.3H21.2z M600,200v100v100v100v87.8  c0,6.8-5.5,12.2-12.2,12.2H112.2c-6.8,0-12.2-5.5-12.2-12.2V500V400V300V200v-87.8c0-6.8,5.5-12.2,12.2-12.2h475.6  c6.8,0,12.2,5.5,12.2,12.2V200z"/>
</svg>
<svg version="1.1" id="Ebene_1" x="200" y="200" viewBox="0 0 700 700" style="enable-background:new 0 0 700 700;" xml:space="preserve" width="448" height="448" shape-rendering="auto">

<path fill="#0078d7" d="M500,400V300v-78.8c0-11.7-9.5-21.3-21.3-21.3H221.2c-11.7,0-21.3,9.5-21.3,21.3V300v100v78.8    c0,11.7,9.5,21.3,21.3,21.3h257.5c11.7,0,21.3-9.5,21.3-21.3V400z"/>
</svg>
<svg version="1.1" id="Ebene_1" x="1352" y="200" viewBox="0 0 700 700" style="enable-background:new 0 0 700 700;" xml:space="preserve" width="448" height="448" shape-rendering="auto">

<path fill="#0078d7" d="M21.2-0.1C9.5-0.1-0.1,9.5-0.1,21.2v78.8v100v100v100v100v100v78.8c0,11.7,9.5,21.3,21.3,21.3h657.6  c11.7,0,21.3-9.5,21.3-21.3V600V500V400V300V200v-100V21.2c0-11.7-9.5-21.3-21.3-21.3H21.2z M600,200v100v100v100v87.8  c0,6.8-5.5,12.2-12.2,12.2H112.2c-6.8,0-12.2-5.5-12.2-12.2V500V400V300V200v-87.8c0-6.8,5.5-12.2,12.2-12.2h475.6  c6.8,0,12.2,5.5,12.2,12.2V200z"/>
</svg>
<svg version="1.1" id="Ebene_1" x="1352" y="200" viewBox="0 0 700 700" style="enable-background:new 0 0 700 700;" xml:space="preserve" width="448" height="448" shape-rendering="auto">

<path fill="#0078d7" d="M500,400V300v-78.8c0-11.7-9.5-21.3-21.3-21.3H221.2c-11.7,0-21.3,9.5-21.3,21.3V300v100v78.8    c0,11.7,9.5,21.3,21.3,21.3h257.5c11.7,0,21.3-9.5,21.3-21.3V400z"/>
</svg>
<svg version="1.1" id="Ebene_1" x="200" y="1352" viewBox="0 0 700 700" style="enable-background:new 0 0 700 700;" xml:space="preserve" width="448" height="448" shape-rendering="auto">

<path fill="#0078d7" d="M21.2-0.1C9.5-0.1-0.1,9.5-0.1,21.2v78.8v100v100v100v100v100v78.8c0,11.7,9.5,21.3,21.3,21.3h657.6  c11.7,0,21.3-9.5,21.3-21.3V600V500V400V300V200v-100V21.2c0-11.7-9.5-21.3-21.3-21.3H21.2z M600,200v100v100v100v87.8  c0,6.8-5.5,12.2-12.2,12.2H112.2c-6.8,0-12.2-5.5-12.2-12.2V500V400V300V200v-87.8c0-6.8,5.5-12.2,12.2-12.2h475.6  c6.8,0,12.2,5.5,12.2,12.2V200z"/>
</svg>
<svg version="1.1" id="Ebene_1" x="200" y="1352" viewBox="0 0 700 700" style="enable-background:new 0 0 700 700;" xml:space="preserve" width="448" height="448" shape-rendering="auto">

<path fill="#0078d7" d="M500,400V300v-78.8c0-11.7-9.5-21.3-21.3-21.3H221.2c-11.7,0-21.3,9.5-21.3,21.3V300v100v78.8    c0,11.7,9.5,21.3,21.3,21.3h257.5c11.7,0,21.3-9.5,21.3-21.3V400z"/>
</svg>
</svg>

</svg>
